HIERARCHY
ROOT pelvis
{
	OFFSET 0.000000 0.705104 -0.000000
	CHANNELS 6 Xposition Yposition Zposition Xrotation Yrotation Zrotation
	JOINT spine
	{
		OFFSET 0.000000 0.000000 0.000000
		CHANNELS 6 Xposition Yposition Zposition Xrotation Yrotation Zrotation
		JOINT spine.001
		{
			OFFSET 0.000000 0.254430 0.013334
			CHANNELS 3 Xrotation Yrotation Zrotation
			JOINT neck
			{
				OFFSET 0.000000 0.252880 -0.031050
				CHANNELS 6 Xposition Yposition Zposition Xrotation Yrotation Zrotation
				JOINT face
				{
					OFFSET 0.000000 0.188111 -0.003283
					CHANNELS 6 Xposition Yposition Zposition Xrotation Yrotation Zrotation
					End Site
					{
						OFFSET 0.000000 -0.007319 0.029861
					}
				}
			}
			JOINT shoulder.L
			{
				OFFSET 0.000000 0.252880 -0.031050
				CHANNELS 6 Xposition Yposition Zposition Yrotation Xrotation Zrotation
				JOINT upper_arm.L
				{
					OFFSET 0.162704 0.000000 0.000000
					CHANNELS 6 Xposition Yposition Zposition Xrotation Yrotation Zrotation
					JOINT forearm.L
					{
						OFFSET 0.253279 0.000909 -0.000110
						CHANNELS 6 Xposition Yposition Zposition Xrotation Yrotation Zrotation
						End Site
						{
							OFFSET 0.223549 -0.001252 0.003802
						}
					}
				}
			}
			JOINT shoulder.R
			{
				OFFSET 0.000000 0.252880 -0.031050
				CHANNELS 6 Xposition Yposition Zposition Yrotation Xrotation Zrotation
				JOINT upper_arm.R
				{
					OFFSET -0.162704 0.000000 0.000000
					CHANNELS 6 Xposition Yposition Zposition Xrotation Yrotation Zrotation
					JOINT forearm.R
					{
						OFFSET -0.249555 0.000909 -0.000110
						CHANNELS 6 Xposition Yposition Zposition Xrotation Yrotation Zrotation
						End Site
						{
							OFFSET -0.226251 -0.001252 0.003849
						}
					}
				}
			}
		}
	}
	JOINT pelvis.L
	{
		OFFSET 0.000000 0.000000 0.000000
		CHANNELS 6 Xposition Yposition Zposition Yrotation Xrotation Zrotation
		End Site
		{
			OFFSET 0.103804 0.000000 0.000000
		}
	}
	JOINT pelvis.R
	{
		OFFSET 0.000000 0.000000 0.000000
		CHANNELS 6 Xposition Yposition Zposition Yrotation Xrotation Zrotation
		End Site
		{
			OFFSET -0.103803 0.000000 0.000000
		}
	}
	JOINT thigh.L
	{
		OFFSET 0.103804 0.000000 0.000000
		CHANNELS 6 Xposition Yposition Zposition Xrotation Yrotation Zrotation
		JOINT shin.L
		{
			OFFSET 0.017434 -0.332663 0.000000
			CHANNELS 6 Xposition Yposition Zposition Xrotation Yrotation Zrotation
			JOINT foot.L
			{
				OFFSET 0.015751 -0.300552 0.000000
				CHANNELS 6 Xposition Yposition Zposition Xrotation Yrotation Zrotation
				End Site
				{
					OFFSET 0.014620 -0.062597 0.149069
				}
			}
		}
	}
	JOINT thigh.R
	{
		OFFSET -0.103803 0.000000 0.000000
		CHANNELS 6 Xposition Yposition Zposition Xrotation Yrotation Zrotation
		JOINT shin.R
		{
			OFFSET -0.017652 -0.336816 0.000000
			CHANNELS 6 Xposition Yposition Zposition Xrotation Yrotation Zrotation
			JOINT foot.R
			{
				OFFSET -0.016147 -0.308100 0.000000
				CHANNELS 6 Xposition Yposition Zposition Xrotation Yrotation Zrotation
				End Site
				{
					OFFSET -0.015418 -0.066013 0.157206
				}
			}
		}
	}
}
MOTION
Frames: 7
Frame Time: 0.041667
0.033791 -0.009950 -0.037969 0.000000 3.807772 0.000000 -0.000000 -0.000000 0.000000 -8.805564 0.360905 -2.777282 10.000323 -0.560821 0.068856 0.000000 0.252880 -0.031050 11.932040 -20.325922 4.730849 -0.000000 0.188111 -0.003283 -2.434643 -0.000003 -0.000001 -0.000000 0.252880 -0.031050 0.100243 -0.000715 0.816535 0.162704 0.000000 -0.000000 -4.287731 -5.074451 -80.247968 0.253279 0.000909 -0.000110 177.813142 -159.469495 167.479080 -0.000000 0.252880 -0.031050 0.094121 -0.000631 0.766790 -0.162704 -0.000000 0.000000 -7.238553 8.924972 78.153845 -0.249555 0.000909 -0.000110 358.144575 17.293820 -347.074096 -0.000000 -0.000000 0.000000 -0.000127 -0.000001 -1.488151 -0.000000 0.000000 0.000000 0.000000 -0.000000 -1.488151 0.103768 -0.002696 0.000000 -0.971214 0.008730 -7.031011 0.017434 -0.332663 0.000000 3.684762 0.143830 -1.530837 0.015751 -0.300552 0.000000 -4.264319 10.378437 5.207392 -0.103768 0.002696 -0.000000 -0.945487 0.045567 0.481645 -0.017652 -0.336816 0.000000 8.617762 -0.282172 2.256329 -0.016147 -0.308100 0.000000 -12.053925 -6.654542 -4.872898 
0.033739 -0.009797 -0.037586 0.000000 3.814929 0.000000 -0.000000 -0.000000 0.000000 -8.837275 0.362005 -2.779756 10.000286 -0.560563 0.068833 0.000000 0.252879 -0.031050 11.926952 -20.349065 4.760511 0.000000 0.188111 -0.003284 -2.413236 -0.000001 0.000002 -0.000000 0.252880 -0.031050 0.101379 -0.000721 0.825704 0.162704 -0.000000 0.000000 -4.346520 -5.140412 -80.293709 0.253279 0.000909 -0.000110 177.820929 -159.478838 167.519214 -0.000000 0.252880 -0.031050 0.095222 -0.000640 0.775874 -0.162704 0.000000 -0.000000 -7.190802 8.865004 78.159439 -0.249555 0.000909 -0.000110 358.110971 17.499703 -347.013553 -0.000000 -0.000000 0.000000 -0.000053 -0.000000 -1.523563 -0.000000 0.000000 0.000000 0.000000 -0.000000 -1.523596 0.103767 -0.002760 0.000000 -0.938093 0.008129 -6.994203 0.017434 -0.332663 0.000000 3.675859 0.142041 -1.575626 0.015751 -0.300552 0.000000 -4.280217 10.400354 5.220759 -0.103767 0.002760 0.000000 -0.898571 0.043231 0.490399 -0.017652 -0.336816 0.000000 8.582723 -0.281892 2.244709 -0.016147 -0.308100 0.000000 -12.075390 -6.687834 -4.894906 
0.033682 -0.009649 -0.037232 0.000000 3.828190 0.000000 -0.000000 -0.000000 -0.000000 -8.867462 0.363191 -2.783075 10.000451 -0.562583 0.069123 -0.000000 0.252879 -0.031050 11.916231 -20.364359 4.785677 -0.000000 0.188111 -0.003283 -2.398095 -0.000002 0.000000 -0.000000 0.252880 -0.031050 0.103151 -0.000752 0.840344 0.162704 -0.000000 0.000000 -4.398210 -5.198383 -80.334281 0.253279 0.000909 -0.000110 177.825887 -159.481434 167.547136 0.000000 0.252880 -0.031050 0.097014 -0.000665 0.790514 -0.162704 -0.000000 -0.000000 -7.146106 8.809226 78.161680 -0.249555 0.000909 -0.000110 358.076656 17.707366 -346.951098 -0.000000 0.000000 -0.000000 0.000027 0.000001 -1.561642 -0.000000 0.000000 -0.000000 -0.000001 -0.000000 -1.561675 0.103765 -0.002829 0.000000 -0.903913 0.007623 -6.967577 0.017434 -0.332663 0.000000 3.661007 0.140573 -1.603676 0.015751 -0.300552 0.000000 -4.286937 10.409030 5.226140 -0.103765 0.002829 -0.000000 -0.859599 0.041284 0.501063 -0.017652 -0.336816 0.000000 8.553365 -0.281571 2.236019 -0.016147 -0.308100 0.000000 -12.082722 -6.729485 -4.918877 
0.033636 -0.009480 -0.036992 0.000000 3.826011 0.000000 -0.000000 -0.000000 0.000000 -8.886457 0.363678 -2.783252 10.000370 -0.558513 0.068591 -0.000000 0.252880 -0.031050 11.886051 -20.335987 4.798668 0.000000 0.188111 -0.003284 -2.385277 0.000003 -0.000005 -0.000000 0.252880 -0.031050 0.104927 -0.000785 0.854788 0.162704 0.000000 -0.000000 -4.414852 -5.216207 -80.355448 0.253279 0.000909 -0.000110 177.824358 -159.454646 167.557053 -0.000000 0.252880 -0.031050 0.098809 -0.000696 0.805044 -0.162704 0.000000 -0.000000 -7.120185 8.776987 78.163032 -0.249555 0.000909 -0.000110 358.048652 17.883179 -346.906947 -0.000000 0.000000 0.000000 0.000014 0.000000 -1.586424 -0.000000 0.000000 0.000000 -0.000001 -0.000000 -1.586458 0.103764 -0.002874 0.000000 -0.875048 0.007257 -6.951543 0.017434 -0.332663 0.000000 3.642285 0.139493 -1.614763 0.015751 -0.300552 0.000000 -4.287107 10.422574 5.232418 -0.103764 0.002874 0.000000 -0.844052 0.040489 0.507087 -0.017652 -0.336816 0.000000 8.540951 -0.281394 2.232935 -0.016147 -0.308100 0.000000 -12.072013 -6.755805 -4.931218 
0.033622 -0.009285 -0.036863 0.000000 3.810020 0.000000 -0.000000 -0.000000 -0.000000 -8.894178 0.363380 -2.779489 10.000340 -0.551774 0.067748 0.000000 0.252880 -0.031050 11.840042 -20.271306 4.800741 0.000000 0.188111 -0.003284 -2.363674 -0.000001 -0.000001 0.000000 0.252880 -0.031050 0.105872 -0.000797 0.863074 0.162704 -0.000000 -0.000000 -4.395403 -5.192735 -80.358583 0.253279 0.000909 -0.000110 177.817159 -159.397655 167.554704 0.000000 0.252880 -0.031050 0.099792 -0.000708 0.813327 -0.162704 0.000000 -0.000000 -7.111325 8.765325 78.167499 -0.249555 0.000909 -0.000110 358.028626 18.028867 -346.893205 -0.000000 0.000000 -0.000000 0.000048 0.000000 -1.594685 -0.000000 0.000000 -0.000000 0.000000 0.000000 -1.594686 0.103763 -0.002889 -0.000000 -0.855344 0.007010 -6.940221 0.017434 -0.332663 0.000000 3.625949 0.138690 -1.620572 0.015751 -0.300552 0.000000 -4.284838 10.444187 5.241839 -0.103763 0.002889 -0.000000 -0.844526 0.040526 0.506039 -0.017652 -0.336816 0.000000 8.537140 -0.281265 2.233025 -0.016147 -0.308100 0.000000 -12.047915 -6.765828 -4.932222 
0.033641 -0.009100 -0.036785 0.000000 3.794364 0.000000 -0.000000 -0.000000 -0.000000 -8.897214 0.362777 -2.774312 10.000218 -0.552157 0.067773 0.000000 0.252880 -0.031050 11.795030 -20.189570 4.803090 -0.000000 0.188111 -0.003283 -2.328936 0.000003 0.000002 0.000000 0.252880 -0.031050 0.106134 -0.000802 0.865244 0.162704 -0.000000 -0.000000 -4.361555 -5.152516 -80.357592 0.253279 0.000909 -0.000110 177.808648 -159.331812 167.550701 0.000000 0.252880 -0.031050 0.100074 -0.000708 0.815498 -0.162704 -0.000000 -0.000000 -7.111784 8.764302 78.177587 -0.249555 0.000909 -0.000110 358.016086 18.149353 -346.910007 -0.000000 -0.000000 -0.000000 -0.000104 -0.000002 -1.595706 -0.000000 0.000000 -0.000000 0.000000 0.000000 -1.595706 0.103763 -0.002891 -0.000000 -0.842879 0.006840 -6.930342 0.017434 -0.332663 0.000000 3.615333 0.138046 -1.628107 0.015751 -0.300552 0.000000 -4.280731 10.465595 5.250802 -0.103763 0.002890 -0.000000 -0.844958 0.040579 0.501078 -0.017652 -0.336816 0.000000 8.529253 -0.281051 2.232368 -0.016147 -0.308100 0.000000 -12.018811 -6.771870 -4.930152 
0.033676 -0.008934 -0.036713 0.000000 3.784122 0.000000 -0.000000 -0.000000 0.000000 -8.901250 0.362294 -2.769841 10.000346 -0.557909 0.068503 0.000000 0.252880 -0.031050 11.762699 -20.085355 4.818976 -0.000000 0.188111 -0.003283 -2.288267 -0.000007 -0.000002 -0.000000 0.252880 -0.031050 0.106612 -0.000804 0.867679 0.162704 -0.000000 -0.000000 -4.331744 -5.116492 -80.363391 0.253279 0.000909 -0.000110 177.802269 -159.280599 167.548980 -0.000000 0.252880 -0.031050 0.100401 -0.000713 0.817891 -0.162704 0.000000 -0.000000 -7.115418 8.766860 78.189465 -0.249555 0.000909 -0.000110 358.009037 18.246314 -346.944158 -0.000000 -0.000000 -0.000000 -0.000030 -0.000001 -1.599853 -0.000000 0.000000 -0.000000 0.000000 0.000000 -1.599886 0.103763 -0.002898 -0.000000 -0.831920 0.006689 -6.922745 0.017434 -0.332663 0.000000 3.606392 0.137487 -1.634991 0.015751 -0.300552 0.000000 -4.271910 10.483247 5.257045 -0.103763 0.002898 -0.000000 -0.840151 0.040373 0.497678 -0.017652 -0.336816 0.000000 8.516555 -0.281035 2.226928 -0.016147 -0.308100 0.000000 -11.994416 -6.778570 -4.929288 
